<svg xmlns="http://www.w3.org/2000/svg" xmlns:xlink="http://www.w3.org/1999/xlink" width="500" zoomAndPan="magnify" viewBox="0 0 375 374.999991" height="500" preserveAspectRatio="xMidYMid meet" version="1.0"><defs><g/></defs><g fill="#ff0000" fill-opacity="1"><g transform="translate(78.230067, 181.6321)"><g><path d="M 27.554688 0 L 27.554688 -33.742188 L 44.804688 -33.742188 L 44.804688 -43.742188 L 0.3125 -43.742188 L 0.3125 -33.742188 L 17.558594 -33.742188 L 17.558594 0 Z M 27.554688 0 "/></g></g></g><g fill="#ff0000" fill-opacity="1"><g transform="translate(130.031391, 181.6321)"><g><path d="M 43.117188 0 L 43.117188 -9.996094 L 14.996094 -9.996094 L 14.996094 -16.871094 L 36.867188 -16.871094 L 36.867188 -26.871094 L 14.996094 -26.871094 L 14.996094 -33.742188 L 43.117188 -33.742188 L 43.117188 -43.742188 L 0.3125 -43.742188 L 0.3125 -33.742188 L 5 -33.742188 L 5 0 Z M 43.117188 0 "/></g></g></g><g fill="#ff0000" fill-opacity="1"><g transform="translate(182.957474, 181.6321)"><g><path d="M 45.613281 0 L 45.613281 -9.996094 L 13.121094 -9.996094 L 13.121094 -33.742188 L 37.179688 -33.742188 L 37.179688 -27.492188 L 47.175781 -27.492188 L 47.175781 -37.492188 L 40.929688 -43.742188 L 9.371094 -43.742188 L 3.125 -37.492188 L 3.125 -6.25 L 9.371094 0 Z M 45.613281 0 "/></g></g></g><g fill="#ff0000" fill-opacity="1"><g transform="translate(239.945182, 181.6321)"><g><path d="M 47.488281 0 L 47.488281 -43.742188 L 37.492188 -43.742188 L 37.492188 -26.871094 L 14.996094 -26.871094 L 14.996094 -43.742188 L 0.3125 -43.742188 L 0.3125 -33.742188 L 5 -33.742188 L 5 0 L 14.996094 0 L 14.996094 -16.871094 L 37.492188 -16.871094 L 37.492188 0 Z M 47.488281 0 "/></g></g></g><g fill="#00ffff" fill-opacity="1"><g transform="translate(84.432141, 180.870584)"><g><path d="M 27.554688 0 L 27.554688 -33.742188 L 44.804688 -33.742188 L 44.804688 -43.742188 L 0.3125 -43.742188 L 0.3125 -33.742188 L 17.558594 -33.742188 L 17.558594 0 Z M 27.554688 0 "/></g></g></g><g fill="#00ffff" fill-opacity="1"><g transform="translate(136.233465, 180.870584)"><g><path d="M 43.117188 0 L 43.117188 -9.996094 L 14.996094 -9.996094 L 14.996094 -16.871094 L 36.867188 -16.871094 L 36.867188 -26.871094 L 14.996094 -26.871094 L 14.996094 -33.742188 L 43.117188 -33.742188 L 43.117188 -43.742188 L 0.3125 -43.742188 L 0.3125 -33.742188 L 5 -33.742188 L 5 0 Z M 43.117188 0 "/></g></g></g><g fill="#00ffff" fill-opacity="1"><g transform="translate(189.159548, 180.870584)"><g><path d="M 45.613281 0 L 45.613281 -9.996094 L 13.121094 -9.996094 L 13.121094 -33.742188 L 37.179688 -33.742188 L 37.179688 -27.492188 L 47.175781 -27.492188 L 47.175781 -37.492188 L 40.929688 -43.742188 L 9.371094 -43.742188 L 3.125 -37.492188 L 3.125 -6.25 L 9.371094 0 Z M 45.613281 0 "/></g></g></g><g fill="#00ffff" fill-opacity="1"><g transform="translate(246.147256, 180.870584)"><g><path d="M 47.488281 0 L 47.488281 -43.742188 L 37.492188 -43.742188 L 37.492188 -26.871094 L 14.996094 -26.871094 L 14.996094 -43.742188 L 0.3125 -43.742188 L 0.3125 -33.742188 L 5 -33.742188 L 5 0 L 14.996094 0 L 14.996094 -16.871094 L 37.492188 -16.871094 L 37.492188 0 Z M 47.488281 0 "/></g></g></g><g fill="#88ff55" fill-opacity="1"><g transform="translate(81.331104, 181.251342)"><g><path d="M 27.554688 0 L 27.554688 -33.742188 L 44.804688 -33.742188 L 44.804688 -43.742188 L 0.3125 -43.742188 L 0.3125 -33.742188 L 17.558594 -33.742188 L 17.558594 0 Z M 27.554688 0 "/></g></g></g><g fill="#88ff55" fill-opacity="1"><g transform="translate(133.132428, 181.251342)"><g><path d="M 43.117188 0 L 43.117188 -9.996094 L 14.996094 -9.996094 L 14.996094 -16.871094 L 36.867188 -16.871094 L 36.867188 -26.871094 L 14.996094 -26.871094 L 14.996094 -33.742188 L 43.117188 -33.742188 L 43.117188 -43.742188 L 0.3125 -43.742188 L 0.3125 -33.742188 L 5 -33.742188 L 5 0 Z M 43.117188 0 "/></g></g></g><g fill="#88ff55" fill-opacity="1"><g transform="translate(186.058511, 181.251342)"><g><path d="M 45.613281 0 L 45.613281 -9.996094 L 13.121094 -9.996094 L 13.121094 -33.742188 L 37.179688 -33.742188 L 37.179688 -27.492188 L 47.175781 -27.492188 L 47.175781 -37.492188 L 40.929688 -43.742188 L 9.371094 -43.742188 L 3.125 -37.492188 L 3.125 -6.25 L 9.371094 0 Z M 45.613281 0 "/></g></g></g><g fill="#88ff55" fill-opacity="1"><g transform="translate(243.046219, 181.251342)"><g><path d="M 47.488281 0 L 47.488281 -43.742188 L 37.492188 -43.742188 L 37.492188 -26.871094 L 14.996094 -26.871094 L 14.996094 -43.742188 L 0.3125 -43.742188 L 0.3125 -33.742188 L 5 -33.742188 L 5 0 L 14.996094 0 L 14.996094 -16.871094 L 37.492188 -16.871094 L 37.492188 0 Z M 47.488281 0 "/></g></g></g><g fill="#ff0000" fill-opacity="1"><g transform="translate(154.850227, 243.396034)"><g><path d="M 39.015625 -52.625 C 39.316406 -52.625 39.554688 -52.523438 39.734375 -52.328125 C 39.910156 -52.128906 39.972656 -51.851562 39.921875 -51.5 L 38.71875 -41.65625 C 38.664062 -41.300781 38.539062 -41.023438 38.34375 -40.828125 C 38.144531 -40.628906 37.867188 -40.53125 37.515625 -40.53125 L 28.796875 -40.53125 C 28.546875 -40.53125 28.421875 -40.40625 28.421875 -40.15625 L 23.609375 -1.125 C 23.554688 -0.769531 23.429688 -0.492188 23.234375 -0.296875 C 23.035156 -0.0976562 22.757812 0 22.40625 0 L 10.90625 0 C 10.550781 0 10.285156 -0.0976562 10.109375 -0.296875 C 9.929688 -0.492188 9.867188 -0.769531 9.921875 -1.125 L 14.734375 -40.15625 C 14.734375 -40.40625 14.609375 -40.53125 14.359375 -40.53125 L 5.9375 -40.53125 C 5.582031 -40.53125 5.316406 -40.628906 5.140625 -40.828125 C 4.972656 -41.023438 4.914062 -41.300781 4.96875 -41.65625 L 6.171875 -51.5 C 6.210938 -51.851562 6.347656 -52.128906 6.578125 -52.328125 C 6.804688 -52.523438 7.09375 -52.625 7.4375 -52.625 Z M 39.015625 -52.625 "/></g></g></g><g fill="#ff0000" fill-opacity="1"><g transform="translate(196.580135, 243.396034)"><g><path d="M 1.5 0 C 1.195312 0 0.957031 -0.0976562 0.78125 -0.296875 C 0.613281 -0.492188 0.550781 -0.769531 0.59375 -1.125 L 6.765625 -51.5 C 6.816406 -51.851562 6.953125 -52.128906 7.171875 -52.328125 C 7.398438 -52.523438 7.664062 -52.625 7.96875 -52.625 L 19.546875 -52.625 C 19.847656 -52.625 20.085938 -52.523438 20.265625 -52.328125 C 20.441406 -52.128906 20.503906 -51.851562 20.453125 -51.5 L 14.28125 -1.125 C 14.226562 -0.769531 14.085938 -0.492188 13.859375 -0.296875 C 13.640625 -0.0976562 13.378906 0 13.078125 0 Z M 1.5 0 "/></g></g></g><g fill="#00ffff" fill-opacity="1"><g transform="translate(160.895175, 242.000449)"><g><path d="M 39.015625 -52.625 C 39.316406 -52.625 39.554688 -52.523438 39.734375 -52.328125 C 39.910156 -52.128906 39.972656 -51.851562 39.921875 -51.5 L 38.71875 -41.65625 C 38.664062 -41.300781 38.539062 -41.023438 38.34375 -40.828125 C 38.144531 -40.628906 37.867188 -40.53125 37.515625 -40.53125 L 28.796875 -40.53125 C 28.546875 -40.53125 28.421875 -40.40625 28.421875 -40.15625 L 23.609375 -1.125 C 23.554688 -0.769531 23.429688 -0.492188 23.234375 -0.296875 C 23.035156 -0.0976562 22.757812 0 22.40625 0 L 10.90625 0 C 10.550781 0 10.285156 -0.0976562 10.109375 -0.296875 C 9.929688 -0.492188 9.867188 -0.769531 9.921875 -1.125 L 14.734375 -40.15625 C 14.734375 -40.40625 14.609375 -40.53125 14.359375 -40.53125 L 5.9375 -40.53125 C 5.582031 -40.53125 5.316406 -40.628906 5.140625 -40.828125 C 4.972656 -41.023438 4.914062 -41.300781 4.96875 -41.65625 L 6.171875 -51.5 C 6.210938 -51.851562 6.347656 -52.128906 6.578125 -52.328125 C 6.804688 -52.523438 7.09375 -52.625 7.4375 -52.625 Z M 39.015625 -52.625 "/></g></g></g><g fill="#00ffff" fill-opacity="1"><g transform="translate(202.625083, 242.000449)"><g><path d="M 1.5 0 C 1.195312 0 0.957031 -0.0976562 0.78125 -0.296875 C 0.613281 -0.492188 0.550781 -0.769531 0.59375 -1.125 L 6.765625 -51.5 C 6.816406 -51.851562 6.953125 -52.128906 7.171875 -52.328125 C 7.398438 -52.523438 7.664062 -52.625 7.96875 -52.625 L 19.546875 -52.625 C 19.847656 -52.625 20.085938 -52.523438 20.265625 -52.328125 C 20.441406 -52.128906 20.503906 -51.851562 20.453125 -51.5 L 14.28125 -1.125 C 14.226562 -0.769531 14.085938 -0.492188 13.859375 -0.296875 C 13.640625 -0.0976562 13.378906 0 13.078125 0 Z M 1.5 0 "/></g></g></g><g fill="#ff3131" fill-opacity="1"><g transform="translate(157.872702, 242.698242)"><g><path d="M 39.015625 -52.625 C 39.316406 -52.625 39.554688 -52.523438 39.734375 -52.328125 C 39.910156 -52.128906 39.972656 -51.851562 39.921875 -51.5 L 38.71875 -41.65625 C 38.664062 -41.300781 38.539062 -41.023438 38.34375 -40.828125 C 38.144531 -40.628906 37.867188 -40.53125 37.515625 -40.53125 L 28.796875 -40.53125 C 28.546875 -40.53125 28.421875 -40.40625 28.421875 -40.15625 L 23.609375 -1.125 C 23.554688 -0.769531 23.429688 -0.492188 23.234375 -0.296875 C 23.035156 -0.0976562 22.757812 0 22.40625 0 L 10.90625 0 C 10.550781 0 10.285156 -0.0976562 10.109375 -0.296875 C 9.929688 -0.492188 9.867188 -0.769531 9.921875 -1.125 L 14.734375 -40.15625 C 14.734375 -40.40625 14.609375 -40.53125 14.359375 -40.53125 L 5.9375 -40.53125 C 5.582031 -40.53125 5.316406 -40.628906 5.140625 -40.828125 C 4.972656 -41.023438 4.914062 -41.300781 4.96875 -41.65625 L 6.171875 -51.5 C 6.210938 -51.851562 6.347656 -52.128906 6.578125 -52.328125 C 6.804688 -52.523438 7.09375 -52.625 7.4375 -52.625 Z M 39.015625 -52.625 "/></g></g></g><g fill="#ff3131" fill-opacity="1"><g transform="translate(199.60261, 242.698242)"><g><path d="M 1.5 0 C 1.195312 0 0.957031 -0.0976562 0.78125 -0.296875 C 0.613281 -0.492188 0.550781 -0.769531 0.59375 -1.125 L 6.765625 -51.5 C 6.816406 -51.851562 6.953125 -52.128906 7.171875 -52.328125 C 7.398438 -52.523438 7.664062 -52.625 7.96875 -52.625 L 19.546875 -52.625 C 19.847656 -52.625 20.085938 -52.523438 20.265625 -52.328125 C 20.441406 -52.128906 20.503906 -51.851562 20.453125 -51.5 L 14.28125 -1.125 C 14.226562 -0.769531 14.085938 -0.492188 13.859375 -0.296875 C 13.640625 -0.0976562 13.378906 0 13.078125 0 Z M 1.5 0 "/></g></g></g></svg>